<svg width="20" height="33" viewBox="0 0 20 33" fill="none" xmlns="http://www.w3.org/2000/svg">
<path d="M15.5356 6.77327C15.4589 6.69594 15.3677 6.63457 15.2672 6.59268C15.1666 6.5508 15.0588 6.52924 14.9499 6.52924C14.841 6.52924 14.7331 6.5508 14.6326 6.59268C14.5321 6.63457 14.4408 6.69594 14.3641 6.77327L10.5856 10.5518C10.5089 10.6291 10.4177 10.6905 10.3172 10.7323C10.2166 10.7742 10.1088 10.7958 9.99989 10.7958C9.89098 10.7958 9.78315 10.7742 9.68261 10.7323C9.58208 10.6905 9.49083 10.6291 9.41414 10.5518L5.63564 6.77327C5.55895 6.69594 5.4677 6.63457 5.36717 6.59268C5.26663 6.5508 5.1588 6.52924 5.04989 6.52924C4.94098 6.52924 4.83315 6.5508 4.73261 6.59268C4.63208 6.63457 4.54083 6.69594 4.46414 6.77327C4.31048 6.92784 4.22424 7.13694 4.22424 7.35489C4.22424 7.57285 4.31048 7.78194 4.46414 7.93652L8.25089 11.7233C8.71495 12.1867 9.34401 12.4471 9.99989 12.4471C10.6558 12.4471 11.2848 12.1867 11.7489 11.7233L15.5356 7.93652C15.6893 7.78194 15.7755 7.57285 15.7755 7.35489C15.7755 7.13694 15.6893 6.92784 15.5356 6.77327V6.77327Z" fill="#545454"/>
<path d="M15.5356 13.3732C15.4589 13.2959 15.3677 13.2345 15.2672 13.1927C15.1666 13.1508 15.0588 13.1292 14.9499 13.1292C14.841 13.1292 14.7331 13.1508 14.6326 13.1927C14.5321 13.2345 14.4408 13.2959 14.3641 13.3732L10.5856 17.1517C10.5089 17.2291 10.4177 17.2904 10.3172 17.3323C10.2166 17.3742 10.1088 17.3958 9.99989 17.3958C9.89098 17.3958 9.78315 17.3742 9.68261 17.3323C9.58208 17.2904 9.49083 17.2291 9.41414 17.1517L5.63564 13.3732C5.55895 13.2959 5.4677 13.2345 5.36717 13.1927C5.26663 13.1508 5.1588 13.1292 5.04989 13.1292C4.94098 13.1292 4.83315 13.1508 4.73261 13.1927C4.63208 13.2345 4.54083 13.2959 4.46414 13.3732C4.31048 13.5278 4.22424 13.7369 4.22424 13.9549C4.22424 14.1728 4.31048 14.3819 4.46414 14.5365L8.25089 18.3232C8.71495 18.7867 9.34401 19.0471 9.99989 19.0471C10.6558 19.0471 11.2848 18.7867 11.7489 18.3232L15.5356 14.5365C15.6893 14.3819 15.7755 14.1728 15.7755 13.9549C15.7755 13.7369 15.6893 13.5278 15.5356 13.3732V13.3732Z" fill="#929292"/>
<path d="M15.5356 13.3732C15.4589 13.2959 15.3677 13.2345 15.2672 13.1927C15.1666 13.1508 15.0588 13.1292 14.9499 13.1292C14.841 13.1292 14.7331 13.1508 14.6326 13.1927C14.5321 13.2345 14.4408 13.2959 14.3641 13.3732L10.5856 17.1517C10.5089 17.2291 10.4177 17.2904 10.3172 17.3323C10.2166 17.3742 10.1088 17.3958 9.99989 17.3958C9.89098 17.3958 9.78315 17.3742 9.68261 17.3323C9.58208 17.2904 9.49083 17.2291 9.41414 17.1517L5.63564 13.3732C5.55895 13.2959 5.4677 13.2345 5.36717 13.1927C5.26663 13.1508 5.1588 13.1292 5.04989 13.1292C4.94098 13.1292 4.83315 13.1508 4.73261 13.1927C4.63208 13.2345 4.54083 13.2959 4.46414 13.3732C4.31048 13.5278 4.22424 13.7369 4.22424 13.9549C4.22424 14.1728 4.31048 14.3819 4.46414 14.5365L8.25089 18.3232C8.71495 18.7867 9.34401 19.0471 9.99989 19.0471C10.6558 19.0471 11.2848 18.7867 11.7489 18.3232L15.5356 14.5365C15.6893 14.3819 15.7755 14.1728 15.7755 13.9549C15.7755 13.7369 15.6893 13.5278 15.5356 13.3732V13.3732Z" fill="#545454"/>
<path d="M15.5356 19.9733C15.4589 19.896 15.3677 19.8346 15.2672 19.7927C15.1666 19.7508 15.0588 19.7292 14.9499 19.7292C14.841 19.7292 14.7331 19.7508 14.6326 19.7927C14.5321 19.8346 14.4408 19.896 14.3641 19.9733L10.5856 23.7518C10.5089 23.8291 10.4177 23.8905 10.3172 23.9324C10.2166 23.9742 10.1088 23.9958 9.99989 23.9958C9.89098 23.9958 9.78315 23.9742 9.68261 23.9324C9.58208 23.8905 9.49083 23.8291 9.41414 23.7518L5.63564 19.9733C5.55895 19.896 5.4677 19.8346 5.36717 19.7927C5.26663 19.7508 5.1588 19.7292 5.04989 19.7292C4.94098 19.7292 4.83315 19.7508 4.73261 19.7927C4.63208 19.8346 4.54083 19.896 4.46414 19.9733C4.31048 20.1279 4.22424 20.337 4.22424 20.5549C4.22424 20.7729 4.31048 20.982 4.46414 21.1365L8.25089 24.9233C8.71495 25.3868 9.34401 25.6471 9.99989 25.6471C10.6558 25.6471 11.2848 25.3868 11.7489 24.9233L15.5356 21.1365C15.6893 20.982 15.7755 20.7729 15.7755 20.5549C15.7755 20.337 15.6893 20.1279 15.5356 19.9733V19.9733Z" fill="#545454"/>
</svg>
